<svg width="16" height="20" viewBox="0 0 16 20" fill="none" xmlns="http://www.w3.org/2000/svg">
<path d="M7.99996 0.571289C8.8063 0.571288 9.58179 0.881202 10.166 1.43693C10.7503 1.99266 11.0986 2.75168 11.1389 3.557L11.1428 3.71415H15.0714C15.2717 3.71437 15.4643 3.79105 15.6099 3.92853C15.7555 4.066 15.8431 4.25389 15.8549 4.45381C15.8666 4.65373 15.8016 4.85059 15.673 5.00416C15.5445 5.15773 15.3622 5.25642 15.1633 5.28007L15.0714 5.28557H14.4043L13.4772 16.7201C13.4174 17.4579 13.082 18.1462 12.5378 18.648C11.9936 19.1499 11.2804 19.4285 10.5402 19.4284H5.45975C4.71949 19.4285 4.00633 19.1499 3.46213 18.648C2.91792 18.1462 2.58256 17.4579 2.52275 16.7201L1.59482 5.28557H0.928537C0.736089 5.28555 0.550343 5.21489 0.40653 5.08701C0.262717 4.95913 0.170839 4.78291 0.148322 4.59179L0.142822 4.49986C0.142848 4.30741 0.213502 4.12167 0.341384 3.97785C0.469266 3.83404 0.645482 3.74216 0.836608 3.71965L0.928537 3.71415H4.85711C4.85711 2.88061 5.18823 2.08121 5.77763 1.49181C6.36703 0.902411 7.16643 0.571289 7.99996 0.571289ZM6.23211 7.83915C6.08971 7.83915 5.95213 7.89072 5.84481 7.98432C5.73749 8.07792 5.66769 8.20721 5.64832 8.34829L5.64282 8.42843V14.7141L5.64832 14.7943C5.66773 14.9353 5.73754 15.0646 5.84486 15.1581C5.95217 15.2517 6.08973 15.3032 6.23211 15.3032C6.37448 15.3032 6.51204 15.2517 6.61936 15.1581C6.72667 15.0646 6.79649 14.9353 6.81589 14.7943L6.82139 14.7141V8.42843L6.81589 8.34829C6.79653 8.20721 6.72673 8.07792 6.61941 7.98432C6.51209 7.89072 6.37451 7.83915 6.23211 7.83915ZM9.76782 7.83915C9.62542 7.83915 9.48784 7.89072 9.38052 7.98432C9.2732 8.07792 9.2034 8.20721 9.18404 8.34829L9.17854 8.42843V14.7141L9.18404 14.7943C9.20344 14.9353 9.27326 15.0646 9.38057 15.1581C9.48789 15.2517 9.62545 15.3032 9.76782 15.3032C9.9102 15.3032 10.0478 15.2517 10.1551 15.1581C10.2624 15.0646 10.3322 14.9353 10.3516 14.7943L10.3571 14.7141V8.42843L10.3516 8.34829C10.3322 8.20721 10.2624 8.07792 10.1551 7.98432C10.0478 7.89072 9.91022 7.83915 9.76782 7.83915ZM7.99996 2.14272C7.60351 2.14259 7.22166 2.29232 6.93096 2.56189C6.64026 2.83146 6.4622 3.20095 6.43247 3.59629L6.42854 3.71415H9.57139L9.56746 3.59629C9.53773 3.20095 9.35967 2.83146 9.06897 2.56189C8.77827 2.29232 8.39642 2.14259 7.99996 2.14272Z" fill="#FF0202"/>
</svg>
