<svg width="125" height="125" viewBox="0 0 125 125" fill="none" xmlns="http://www.w3.org/2000/svg">
<path d="M14.5929 18.0466H65.9169C73.19 18.0466 79.0874 25.6699 79.0874 35.0716V51.2308L82.1947 52.1433L84.4732 68.2674L82.8991 84.5434L66.6563 84.4441C66.4014 84.4675 66.1718 84.5434 65.9188 84.5434H14.5948C7.31591 84.5434 1.42039 76.9239 1.42039 67.5183V35.0736C1.4165 25.6719 7.31591 18.0466 14.5929 18.0466Z" fill="#009398"/>
<path d="M14.5929 18.0796H65.9169C73.19 18.0796 79.0874 25.7009 79.0874 35.1046V51.2657L82.1947 52.1782L84.4732 68.3004L83.3797 79.6283L82.1947 71.2676L79.0874 70.3551V54.1959C79.0874 44.7942 73.1919 37.1709 65.9169 37.1709H14.5929C7.31395 37.1709 1.41844 44.7962 1.41844 54.1959V35.1026C1.41844 25.701 7.31395 18.0796 14.5929 18.0796Z" fill="#11B0B6"/>
<path d="M86.0686 37.1828H96.521C105.253 37.7529 122.621 41.7553 122.288 64.559V72.9528C122.288 80.1345 119.163 85.9541 115.317 85.9541H86.0725C82.2219 85.9541 79.0952 80.1364 79.0952 72.9528V50.1802C79.0952 43.0005 82.22 37.177 86.0725 37.177" fill="#E3E4E3"/>
<path d="M83.2765 29.1604H89.5417C94.7659 29.46 105.166 31.5381 104.967 43.3816V47.7342C104.967 51.4661 103.09 54.4878 100.792 54.4878H83.2804C80.9786 54.4878 79.1049 51.4661 79.1049 47.7342V35.9179C79.101 32.186 80.9767 29.1604 83.2785 29.1604" fill="#E3E4E3"/>
<path d="M99.3986 43.5239H104.64C109.016 43.8508 117.725 46.1409 117.556 59.1869V63.9889C117.556 68.1002 115.994 71.4332 114.062 71.4332H99.3986C97.4665 71.4332 95.8963 68.1002 95.8963 63.9889V50.9624C95.8963 46.855 97.4665 43.5259 99.3986 43.5259" fill="#A2C2CA"/>
<path d="M106.936 59.8372C107.191 54.3386 106.816 48.6844 105.195 43.5049C109.598 43.8551 118.196 46.1958 118.031 59.1679V63.9699C118.031 68.0812 116.465 71.4142 114.532 71.4142H105.004C106.129 67.9333 106.74 64.0828 106.936 59.845" fill="#83AFB7"/>
<path d="M83.1014 89.388C83.1045 92.9673 84.5285 96.3989 87.0605 98.9287C89.5925 101.459 93.0253 102.88 96.6046 102.88C100.182 102.877 103.612 101.454 106.141 98.9246C108.671 96.3951 110.093 92.9653 110.096 89.388C110.095 85.8098 108.674 82.3784 106.144 79.8478C103.614 77.3173 100.183 75.8946 96.6046 75.8926C94.8318 75.8921 93.0763 76.2407 91.4383 76.9187C89.8003 77.5966 88.3119 78.5905 87.058 79.8437C85.8041 81.0969 84.8093 82.5847 84.1304 84.2224C83.4515 85.86 83.1019 87.6153 83.1014 89.388Z" fill="white"/>
<path d="M85.4946 89.3876C85.4971 92.3315 86.6684 95.1539 88.7509 97.2346C90.8334 99.3153 93.6569 100.484 96.6007 100.484C99.5425 100.48 102.363 99.3102 104.443 97.23C106.523 95.1498 107.694 92.3295 107.697 89.3876C107.658 86.4689 106.472 83.6827 104.394 81.6324C102.316 79.582 99.5149 78.4324 96.5958 78.4324C93.6768 78.4324 90.8752 79.582 88.7975 81.6324C86.7198 83.6827 85.5332 86.4689 85.4946 89.3876Z" fill="#243438"/>
<path d="M89.4055 89.2327C89.4055 91.1413 90.1637 92.9717 91.5133 94.3212C92.8628 95.6708 94.6932 96.4289 96.6018 96.4289C98.5103 96.4289 100.341 95.6708 101.69 94.3212C103.04 92.9717 103.798 91.1413 103.798 89.2327C103.745 87.3596 102.963 85.5812 101.619 84.2752C100.276 82.9691 98.4756 82.2385 96.6018 82.2385C94.7279 82.2385 92.9279 82.9691 91.5842 84.2752C90.2405 85.5812 89.4589 87.3596 89.4055 89.2327Z" fill="#969796"/>
<path d="M27.5591 91.1332C27.5601 94.2497 28.7986 97.2383 31.0023 99.4421C33.206 101.646 36.1946 102.884 39.3112 102.885C42.4274 102.883 45.4154 101.644 47.6189 99.4409C49.8224 97.2374 51.0613 94.2494 51.0633 91.1332C51.0623 88.0167 49.8238 85.0281 47.6201 82.8244C45.4163 80.6206 42.4277 79.3821 39.3112 79.3811C37.7679 79.3811 36.2397 79.6851 34.8138 80.2757C33.388 80.8663 32.0925 81.7319 31.0012 82.8232C29.9099 83.9145 29.0442 85.21 28.4536 86.6359C27.863 88.0617 27.5591 89.5899 27.5591 91.1332Z" fill="white"/>
<path d="M29.6411 91.1331C29.6411 93.6952 30.6589 96.1524 32.4705 97.9641C34.2822 99.7758 36.7394 100.794 39.3015 100.794C41.8636 100.794 44.3208 99.7758 46.1325 97.9641C47.9442 96.1524 48.962 93.6952 48.962 91.1331C48.963 89.865 48.7142 88.6091 48.2296 87.4373C47.7451 86.2654 47.0345 85.2004 46.1382 84.3033C45.242 83.4062 44.1778 82.6944 43.0064 82.2087C41.835 81.723 40.5794 81.4729 39.3113 81.4727C38.0417 81.4711 36.7844 81.7199 35.6111 82.2047C34.4378 82.6895 33.3716 83.4009 32.4734 84.2981C31.5753 85.1954 30.8628 86.2609 30.3768 87.4337C29.8908 88.6065 29.6408 89.8636 29.6411 91.1331Z" fill="#243438"/>
<path d="M33.0381 91.0023C33.0381 91.8255 33.2003 92.6406 33.5154 93.4011C33.8304 94.1616 34.2923 94.8525 34.8744 95.4345C35.4566 96.0165 36.1477 96.4781 36.9083 96.7929C37.6689 97.1078 38.484 97.2697 39.3072 97.2694C40.5455 97.2683 41.7558 96.9001 42.7849 96.2113C43.814 95.5226 44.6159 94.5442 45.0892 93.3999C45.5624 92.2555 45.6859 90.9966 45.4438 89.7821C45.2018 88.5677 44.6052 87.4522 43.7295 86.5767C42.8537 85.7012 41.738 85.105 40.5235 84.8633C39.309 84.6217 38.0501 84.7455 36.9059 85.2191C35.7617 85.6927 34.7836 86.4949 34.0952 87.5243C33.4067 88.5536 33.0389 89.7639 33.0381 91.0023Z" fill="#969796"/>
<path d="M3.52171 91.0036C3.52299 92.5456 3.82798 94.0723 4.41927 95.4965C5.01056 96.9206 5.87657 98.2144 6.96785 99.3039C8.05914 100.393 9.35432 101.257 10.7795 101.846C12.2046 102.435 13.7318 102.738 15.2738 102.736C16.8159 102.735 18.3425 102.43 19.7667 101.839C21.1909 101.247 22.4846 100.381 23.5741 99.2901C24.6636 98.1988 25.5274 96.9036 26.1164 95.4785C26.7053 94.0533 27.0078 92.5262 27.0065 90.9841C27.0039 87.8699 25.7643 84.8842 23.5603 82.6839C21.3564 80.4836 18.3686 79.2489 15.2544 79.2515C12.1401 79.254 9.15439 80.4937 6.95409 82.6976C4.75379 84.9016 3.51913 87.8893 3.52171 91.0036Z" fill="white"/>
<path d="M5.60357 91.0025C5.60666 93.5654 6.62679 96.0222 8.43991 97.8335C10.253 99.6448 12.7109 100.662 15.2738 100.663C17.8359 100.663 20.2931 99.6452 22.1047 97.8335C23.9164 96.0218 24.9342 93.5646 24.9342 91.0025C24.9342 88.4404 23.9164 85.9832 22.1047 84.1715C20.2931 82.3598 17.8359 81.342 15.2738 81.342C14.0045 81.3413 12.7474 81.5906 11.5745 82.0756C10.4015 82.5607 9.33562 83.2721 8.43763 84.1692C7.53964 85.0663 6.82718 86.1315 6.3409 87.304C5.85463 88.4764 5.60408 89.7332 5.60357 91.0025Z" fill="#243438"/>
<path d="M9.00856 90.8714C8.99389 91.7033 9.14508 92.5298 9.45331 93.3026C9.76153 94.0755 10.2206 94.7792 10.8038 95.3727C11.3869 95.9662 12.0824 96.4377 12.8497 96.7595C13.617 97.0812 14.4407 97.247 15.2728 97.247C16.1048 97.247 16.9285 97.0812 17.6958 96.7595C18.4632 96.4377 19.1587 95.9662 19.7418 95.3727C20.325 94.7792 20.784 94.0755 21.0923 93.3026C21.4005 92.5298 21.5517 91.7033 21.537 90.8714C21.5081 89.2291 20.8354 87.6639 19.6637 86.5127C18.4921 85.3616 16.9153 84.7166 15.2728 84.7166C13.6303 84.7166 12.0534 85.3616 10.8818 86.5127C9.7102 87.6639 9.0375 89.2291 9.00856 90.8714Z" fill="#969796"/>
<path d="M118.041 78.3542C118.041 81.6269 119.364 84.2828 121 84.2828C122.634 84.2828 123.959 81.6269 123.959 78.3542V78.2219C123.959 74.9531 122.634 72.3049 121 72.3049C119.364 72.3049 118.041 74.9531 118.041 78.2219V78.3542Z" fill="#F1F1F1"/>
<path d="M0.566101 71.497C0.566101 74.7697 1.88919 77.4178 3.52749 77.4178C5.15995 77.4178 6.48693 74.7697 6.48693 71.497V71.3686C6.48693 68.092 5.15995 65.4438 3.52749 65.4438C1.88724 65.4438 0.566101 68.092 0.566101 71.3686V71.497Z" fill="#046D71"/>
</svg>
